<?xml version="1.0" encoding="UTF-8"?>
<svg xmlns="http://www.w3.org/2000/svg" xmlns:xlink="http://www.w3.org/1999/xlink" width="150pt" height="150.999991pt" viewBox="0 0 375 374.999991" version="1.2">
<g id="surface1">
<path style=" stroke:none;fill-rule:nonzero;fill:rgb(0%,0%,0%);fill-opacity:1;" d="M 187.5 232.980469 C 184.796875 232.980469 182.09375 233.046875 179.394531 233.179688 C 176.691406 233.3125 173.996094 233.511719 171.304688 233.777344 C 168.613281 234.039062 165.929688 234.371094 163.257812 234.769531 C 160.582031 235.164062 157.917969 235.628906 155.265625 236.15625 C 152.613281 236.683594 149.976562 237.273438 147.355469 237.933594 C 144.730469 238.589844 142.125 239.308594 139.539062 240.09375 C 136.949219 240.878906 134.382812 241.726562 131.839844 242.636719 C 129.292969 243.550781 126.769531 244.523438 124.273438 245.558594 C 121.773438 246.589844 119.300781 247.6875 116.859375 248.84375 C 114.414062 250 112 251.214844 109.613281 252.488281 C 107.230469 253.765625 104.878906 255.097656 102.558594 256.488281 C 100.238281 257.875 97.957031 259.324219 95.707031 260.824219 C 93.457031 262.328125 91.25 263.882812 89.078125 265.496094 C 86.90625 267.105469 84.773438 268.769531 82.683594 270.484375 C 80.59375 272.199219 78.546875 273.964844 76.542969 275.78125 C 74.539062 277.597656 72.582031 279.460938 70.671875 281.371094 C 68.757812 283.285156 66.894531 285.242188 65.078125 287.246094 C 63.261719 289.25 61.496094 291.296875 59.78125 293.386719 C 58.066406 295.476562 56.402344 297.609375 54.792969 299.78125 C 53.179688 301.953125 51.625 304.160156 50.121094 306.410156 C 48.621094 308.660156 47.175781 310.941406 45.785156 313.261719 C 44.394531 315.582031 43.0625 317.933594 41.785156 320.316406 C 40.511719 322.703125 39.296875 325.117188 38.140625 327.5625 C 36.984375 330.003906 35.890625 332.476562 34.855469 334.976562 C 33.820312 337.472656 32.847656 339.996094 31.9375 342.539062 C 31.023438 345.085938 30.175781 347.652344 29.390625 350.242188 C 28.605469 352.828125 27.886719 355.433594 27.230469 358.058594 C 26.570312 360.679688 25.980469 363.316406 25.453125 365.96875 C 24.925781 368.621094 24.460938 371.285156 24.066406 373.960938 C 23.667969 376.632812 23.339844 379.316406 23.074219 382.007812 C 22.808594 384.699219 22.609375 387.394531 22.476562 390.09375 C 22.34375 392.796875 22.277344 395.5 22.277344 398.203125 C 22.277344 400.90625 22.34375 403.609375 22.476562 406.308594 C 22.609375 409.011719 22.808594 411.707031 23.074219 414.398438 C 23.339844 417.089844 23.667969 419.769531 24.066406 422.445312 C 24.460938 425.121094 24.925781 427.785156 25.453125 430.4375 C 25.980469 433.089844 26.570312 435.726562 27.230469 438.347656 C 27.886719 440.972656 28.605469 443.578125 29.390625 446.164062 C 30.175781 448.75 31.023438 451.320312 31.9375 453.863281 C 32.847656 456.410156 33.820312 458.933594 34.855469 461.429688 C 35.890625 463.929688 36.984375 466.398438 38.140625 468.84375 C 39.296875 471.289062 40.511719 473.703125 41.785156 476.089844 C 43.0625 478.472656 44.394531 480.824219 45.785156 483.144531 C 47.175781 485.464844 48.621094 487.746094 50.121094 489.996094 C 51.625 492.242188 53.179688 494.453125 54.792969 496.625 C 56.402344 498.796875 58.066406 500.929688 59.78125 503.019531 C 61.496094 505.109375 63.261719 507.15625 65.078125 509.160156 C 66.894531 511.164062 68.757812 513.121094 70.671875 515.03125 C 72.582031 516.945312 74.539062 518.808594 76.542969 520.625 C 78.546875 522.441406 80.59375 524.207031 82.683594 525.921875 C 84.773438 527.636719 86.90625 529.300781 89.078125 530.910156 C 91.25 532.523438 93.457031 534.078125 95.707031 535.582031 C 97.957031 537.082031 100.238281 538.527344 102.558594 539.917969 C 104.878906 541.308594 107.230469 542.640625 109.613281 543.917969 C 112 545.191406 114.414062 546.40625 116.859375 547.5625 C 119.300781 548.71875 121.773438 549.8125 124.273438 550.847656 C 126.769531 551.882812 129.292969 552.855469 131.839844 553.765625 C 134.382812 554.679688 136.949219 555.527344 139.539062 556.3125 C 142.125 557.097656 144.730469 557.816406 147.355469 558.472656 C 149.976562 559.128906 152.613281 559.722656 155.265625 560.25 C 157.917969 560.777344 160.582031 561.242188 163.257812 561.636719 C 165.929688 562.035156 168.613281 562.363281 171.304688 562.628906 C 173.996094 562.894531 176.691406 563.09375 179.394531 563.226562 C 182.09375 563.359375 184.796875 563.425781 187.5 563.425781 C 190.203125 563.425781 192.90625 563.359375 195.605469 563.226562 C 198.308594 563.09375 201.003906 562.894531 203.695312 562.628906 C 206.386719 562.363281 209.070312 562.035156 211.742188 561.636719 C 214.417969 561.242188 217.082031 560.777344 219.734375 560.25 C 222.386719 559.722656 225.023438 559.128906 227.644531 558.472656 C 230.269531 557.816406 232.875 557.097656 235.460938 556.3125 C 238.050781 555.527344 240.617188 554.679688 243.160156 553.765625 C 245.707031 552.855469 248.230469 551.882812 250.726562 550.847656 C 253.226562 549.8125 255.699219 548.71875 258.140625 547.5625 C 260.585938 546.40625 263 545.191406 265.386719 543.917969 C 267.769531 542.640625 270.121094 541.308594 272.441406 539.917969 C 274.761719 538.527344 277.042969 537.082031 279.292969 535.582031 C 281.542969 534.078125 283.75 532.523438 285.921875 530.910156 C 288.09375 529.300781 290.226562 527.636719 292.316406 525.921875 C 294.40625 524.207031 296.453125 522.441406 298.457031 520.625 C 300.460938 518.808594 302.417969 516.945312 304.328125 515.03125 C 306.242188 513.121094 308.105469 511.164062 309.921875 509.160156 C 311.738281 507.15625 313.503906 505.109375 315.21875 503.019531 C 316.933594 500.929688 318.597656 498.796875 320.207031 496.625 C 321.820312 494.453125 323.375 492.242188 324.878906 489.996094 C 326.378906 487.746094 327.824219 485.464844 329.214844 483.144531 C 330.605469 480.824219 331.9375 478.472656 333.214844 476.089844 C 334.488281 473.703125 335.703125 471.289062 336.859375 468.84375 C 338.015625 466.398438 339.109375 463.929688 340.144531 461.429688 C 341.179688 458.933594 342.152344 456.410156 343.0625 453.863281 C 343.976562 451.320312 344.824219 448.75 345.609375 446.164062 C 346.394531 443.578125 347.113281 440.972656 347.769531 438.347656 C 348.429688 435.726562 349.019531 433.089844 349.546875 430.4375 C 350.074219 427.785156 350.539062 425.121094 350.933594 422.445312 C 351.332031 419.769531 351.660156 417.089844 351.925781 414.398438 C 352.191406 411.707031 352.390625 409.011719 352.523438 406.308594 C 352.65625 403.609375 352.722656 400.90625 352.722656 398.203125 C 352.722656 395.5 352.65625 392.796875 352.523438 390.09375 C 352.390625 387.394531 352.191406 384.699219 351.925781 382.007812 C 351.660156 379.316406 351.332031 376.632812 350.933594 373.960938 C 350.539062 371.285156 350.074219 368.621094 349.546875 365.96875 C 349.019531 363.316406 348.429688 360.679688 347.769531 358.058594 C 347.113281 355.433594 346.394531 352.828125 345.609375 350.242188 C 344.824219 347.652344 343.976562 345.085938 343.0625 342.539062 C 342.152344 339.996094 341.179688 337.472656 340.144531 334.976562 C 339.109375 332.476562 338.015625 330.003906 336.859375 327.5625 C 335.703125 325.117188 334.488281 322.703125 333.214844 320.316406 C 331.9375 317.933594 330.605469 315.582031 329.214844 313.261719 C 327.824219 310.941406 326.378906 308.660156 324.878906 306.410156 C 323.375 304.160156 321.820312 301.953125 320.207031 299.78125 C 318.597656 297.609375 316.933594 295.476562 315.21875 293.386719 C 313.503906 291.296875 311.738281 289.25 309.921875 287.246094 C 308.105469 285.242188 306.242188 283.285156 304.328125 281.371094 C 302.417969 279.460938 300.460938 277.597656 298.457031 275.78125 C 296.453125 273.964844 294.40625 272.199219 292.316406 270.484375 C 290.226562 268.769531 288.09375 267.105469 285.921875 265.496094 C 283.75 263.882812 281.542969 262.328125 279.292969 260.824219 C 277.042969 259.324219 274.761719 257.875 272.441406 256.488281 C 270.121094 255.097656 267.769531 253.765625 265.386719 252.488281 C 263 251.214844 260.585938 250 258.140625 248.84375 C 255.699219 247.6875 253.226562 246.589844 250.726562 245.558594 C 248.230469 244.523438 245.707031 243.550781 243.160156 242.636719 C 240.617188 241.726562 238.050781 240.878906 235.460938 240.09375 C 232.875 239.308594 230.269531 238.589844 227.644531 237.933594 C 225.023438 237.273438 222.386719 236.683594 219.734375 236.15625 C 217.082031 235.628906 214.417969 235.164062 211.742188 234.769531 C 209.070312 234.371094 206.386719 234.039062 203.695312 233.777344 C 201.003906 233.511719 198.308594 233.3125 195.605469 233.179688 C 192.90625 233.046875 190.203125 232.980469 187.5 232.980469 Z M 187.5 232.980469 "/>
</g>
</svg>
